# Blender 4.1.1
# www.blender.org
mtllib untitled.mtl
o Cube_001-mesh_cms
v 0.053143 0.018033 0.032272
v 0.056427 0.031283 0.019186
v 0.053756 0.018468 0.005542
v 0.062461 0.001631 0.014829
v 0.051711 0.002973 0.016058
v 0.051981 0.004031 0.014627
v 0.066769 0.019624 0.004954
v 0.058386 0.032323 0.018377
v 0.068866 0.029922 0.018578
v 0.062231 0.001037 0.019700
v 0.051628 0.002755 0.017840
v 0.062108 0.000356 0.018042
v 0.064327 0.011336 0.033325
v 0.054147 0.015133 0.034215
v 0.053849 0.013736 0.033123
v 0.051753 0.003437 0.019499
v 0.064627 0.012734 0.034415
v 0.054542 0.016873 0.034445
v 0.065404 0.016089 0.033955
v 0.054924 0.018489 0.033753
v 0.053997 0.019487 0.005105
v 0.055215 0.017270 0.004122
v 0.053756 0.018468 0.005542
v 0.055992 0.020625 0.003662
v 0.055597 0.018886 0.003430
v 0.054196 0.020365 0.005220
v 0.056290 0.022023 0.004752
v 0.056464 0.031603 0.021133
v 0.058156 0.031728 0.023248
v 0.058426 0.032787 0.021819
v 0.058511 0.033003 0.020035
v 0.056506 0.031713 0.020232
v 0.058386 0.032323 0.018377
v 0.056427 0.031283 0.019186
v 0.050436 0.004897 0.016681
v 0.051981 0.004031 0.014627
v 0.051711 0.002973 0.016058
v 0.051628 0.002755 0.017840
v 0.050393 0.004787 0.017580
v 0.051753 0.003437 0.019499
v 0.050471 0.005217 0.018628
v 0.052901 0.017015 0.032709
v 0.054924 0.018489 0.033753
v 0.053143 0.018033 0.032272
v 0.052703 0.016137 0.032592
v 0.054542 0.016873 0.034445
v 0.053849 0.013736 0.033123
v 0.054147 0.015133 0.034215
v 0.050605 0.005564 0.015779
v 0.054385 0.021245 0.005910
v 0.056293 0.030936 0.022034
v 0.055597 0.018886 0.003430
v 0.065694 0.014871 0.004324
v 0.055215 0.017270 0.004122
v 0.052543 0.014307 0.019129
v 0.051219 0.016370 0.011585
v 0.053062 0.015948 0.011620
v 0.053062 0.015948 0.011620
v 0.054286 0.030447 0.019671
v 0.056130 0.030025 0.019706
v 0.052543 0.014307 0.019129
v 0.049402 0.008783 0.015788
v 0.050699 0.014729 0.019093
v 0.053505 0.018587 0.020069
v 0.051147 0.017284 0.026284
v 0.052989 0.016862 0.026320
v 0.054463 0.023281 0.026083
v 0.051661 0.019009 0.020035
v 0.053505 0.018587 0.020069
v 0.054463 0.023281 0.026083
v 0.054286 0.030447 0.019671
v 0.052620 0.023702 0.026049
v 0.052989 0.016862 0.026320
v 0.049402 0.008783 0.015788
v 0.051244 0.008361 0.015823
v 0.050699 0.014729 0.019093
v 0.051147 0.017284 0.026284
v 0.051661 0.019009 0.020035
v 0.068906 0.030386 0.022020
v 0.058511 0.033003 0.020035
v 0.058426 0.032787 0.021819
v 0.068637 0.029329 0.023450
v 0.058156 0.031728 0.023248
v 0.066470 0.018226 0.003862
v 0.055992 0.020625 0.003662
v 0.068990 0.030604 0.020237
v 0.062191 0.000574 0.016258
v 0.067476 0.015326 0.005805
v 0.070146 0.028142 0.019449
v 0.070013 0.027794 0.022298
v 0.065694 0.014871 0.004324
v 0.067716 0.016345 0.005368
v 0.067476 0.015326 0.005805
v 0.066470 0.018226 0.003862
v 0.067916 0.017223 0.005485
v 0.066769 0.019624 0.004954
v 0.068104 0.018105 0.006173
v 0.070183 0.028462 0.021396
v 0.068637 0.029329 0.023450
v 0.070013 0.027794 0.022298
v 0.070226 0.028571 0.020497
v 0.068906 0.030386 0.022020
v 0.068866 0.029922 0.018578
v 0.070146 0.028142 0.019449
v 0.064154 0.001755 0.016944
v 0.062461 0.001631 0.014829
v 0.064324 0.002423 0.016043
v 0.062108 0.000356 0.018042
v 0.064113 0.001646 0.017845
v 0.062231 0.001037 0.019700
v 0.064191 0.002076 0.018891
v 0.065404 0.016089 0.033955
v 0.066621 0.013873 0.032973
v 0.066863 0.014891 0.032535
v 0.065020 0.014474 0.034647
v 0.066422 0.012995 0.032857
v 0.064327 0.011336 0.033325
v 0.066233 0.012113 0.032167
v 0.066135 0.011132 0.025624
v 0.068174 0.010922 0.017961
v 0.067977 0.010710 0.025660
v 0.069778 0.026702 0.021467
v 0.067977 0.010710 0.025660
v 0.071622 0.026280 0.021501
v 0.064799 0.004794 0.019576
v 0.068174 0.010922 0.017961
v 0.066331 0.011344 0.017926
v 0.067328 0.015716 0.018132
v 0.069255 0.015121 0.011667
v 0.067413 0.015543 0.011632
v 0.067328 0.015716 0.018132
v 0.070628 0.021278 0.013570
v 0.069170 0.015294 0.018168
v 0.068786 0.021701 0.013534
v 0.071622 0.026280 0.021501
v 0.070628 0.021278 0.013570
v 0.064799 0.004794 0.019576
v 0.069255 0.015121 0.011667
v 0.066642 0.004372 0.019612
v 0.068174 0.010922 0.017961
v 0.069255 0.015121 0.011667
v 0.069170 0.015294 0.018168
v 0.056290 0.022023 0.004752
v 0.050605 0.005564 0.015779
v 0.050471 0.005217 0.018628
v 0.050436 0.004897 0.016681
v 0.050393 0.004787 0.017580
v 0.052513 0.015255 0.031904
v 0.052703 0.016137 0.032592
v 0.052901 0.017015 0.032709
v 0.056293 0.030936 0.022034
v 0.056464 0.031603 0.021133
v 0.056506 0.031713 0.020232
v 0.054385 0.021245 0.005910
v 0.054196 0.020365 0.005220
v 0.053997 0.019487 0.005105
v 0.065020 0.014474 0.034647
v 0.052513 0.015255 0.031904
v 0.066077 0.016486 0.003632
v 0.050699 0.014729 0.019093
v 0.051219 0.016370 0.011585
v 0.051244 0.008361 0.015823
v 0.051661 0.019009 0.020035
v 0.052620 0.023702 0.026049
v 0.056130 0.030025 0.019706
v 0.051147 0.017284 0.026284
v 0.052620 0.023702 0.026049
v 0.054286 0.030447 0.019671
v 0.051219 0.016370 0.011585
v 0.049402 0.008783 0.015788
v 0.064154 0.001755 0.016944
v 0.064324 0.002423 0.016043
v 0.064191 0.002076 0.018891
v 0.066863 0.014891 0.032535
v 0.067716 0.016345 0.005368
v 0.067916 0.017223 0.005485
v 0.068104 0.018105 0.006173
v 0.070226 0.028571 0.020497
v 0.070183 0.028462 0.021396
v 0.066621 0.013873 0.032973
v 0.066422 0.012995 0.032857
v 0.066233 0.012113 0.032167
v 0.064113 0.001646 0.017845
v 0.066077 0.016486 0.003632
v 0.068990 0.030604 0.020237
v 0.062191 0.000574 0.016258
v 0.064627 0.012734 0.034415
v 0.066331 0.011344 0.017926
v 0.066135 0.011132 0.025624
v 0.066642 0.004372 0.019612
v 0.069170 0.015294 0.018168
v 0.068786 0.021701 0.013534
v 0.069778 0.026702 0.021467
v 0.067413 0.015543 0.011632
v 0.070628 0.021278 0.013570
v 0.071622 0.026280 0.021501
v 0.067977 0.010710 0.025660
v 0.066642 0.004372 0.019612
vn -0.9746 0.2230 -0.0187
vn -0.1453 -0.6939 -0.7052
vn -0.1994 -0.9030 -0.3805
vn -0.1453 -0.6939 -0.7053
vn 0.1704 0.6847 -0.7086
vn 0.2022 0.8409 -0.5019
vn 0.2022 0.8409 -0.5020
vn -0.2021 -0.8409 0.5021
vn -0.2236 -0.9656 0.1328
vn -0.2236 -0.9656 0.1329
vn -0.1704 -0.6847 0.7086
vn -0.1019 -0.3672 0.9245
vn -0.1706 -0.6849 0.7084
vn -0.2022 -0.8409 0.5021
vn -0.1018 -0.3670 0.9246
vn 0.0115 0.1334 0.9910
vn 0.0963 0.4931 0.8646
vn 0.0962 0.4930 0.8647
vn -0.7090 0.0676 -0.7019
vn -0.7600 -0.1889 -0.6219
vn -0.7599 -0.1886 -0.6221
vn -0.6298 0.4157 -0.6561
vn -0.7090 0.0679 -0.7019
vn -0.6300 0.4158 -0.6559
vn -0.5722 0.6404 -0.5123
vn -0.5625 0.7879 0.2507
vn -0.5897 0.6470 0.4833
vn -0.5624 0.7879 0.2509
vn -0.5454 0.8315 -0.1058
vn -0.5456 0.8313 -0.1057
vn -0.5499 0.7504 -0.3667
vn -0.5496 0.7507 -0.3667
vn -0.8395 -0.4669 -0.2778
vn -0.7943 -0.3300 -0.5100
vn -0.8563 -0.5104 0.0787
vn -0.8564 -0.5103 0.0786
vn -0.8343 -0.4337 0.3403
vn -0.8345 -0.4336 0.3401
vn -0.6930 0.2531 0.6751
vn -0.6244 0.5055 0.5955
vn -0.6243 0.5055 0.5955
vn -0.7717 -0.0945 0.6289
vn -0.6928 0.2531 0.6752
vn -0.8122 -0.3235 0.4855
vn -0.7718 -0.0945 0.6288
vn -0.7944 -0.3301 -0.5098
vn -0.5722 0.6406 -0.5121
vn -0.5896 0.6471 0.4834
vn -0.0116 -0.1337 -0.9910
vn -0.0962 -0.4931 -0.8647
vn -0.0962 -0.4930 -0.8647
vn -0.2136 -0.9512 -0.2226
vn 0.1252 0.4736 -0.8718
vn 0.1227 0.4618 -0.8784
vn 0.2096 0.9380 0.2762
vn -0.1856 -0.7600 0.6228
vn 0.1373 0.6623 0.7365
vn -0.1835 -0.7488 0.6369
vn -0.9746 0.2232 -0.0186
vn 0.1995 0.9031 0.3802
vn 0.2237 0.9656 -0.1329
vn 0.1995 0.9030 0.3804
vn 0.1453 0.6937 0.7054
vn 0.1452 0.6937 0.7054
vn 0.1018 0.3670 -0.9246
vn 0.1018 0.3672 -0.9246
vn 0.2236 0.9656 -0.1327
vn -0.1994 -0.9031 -0.3804
vn 0.9747 -0.2228 0.0185
vn 0.6244 -0.5055 -0.5955
vn 0.6929 -0.2532 -0.6751
vn 0.7717 0.0945 -0.6289
vn 0.7717 0.0948 -0.6289
vn 0.8121 0.3235 -0.4856
vn 0.8121 0.3236 -0.4856
vn 0.8395 0.4670 0.2778
vn 0.7945 0.3301 0.5098
vn 0.7945 0.3299 0.5098
vn 0.8564 0.5103 -0.0788
vn 0.8395 0.4671 0.2777
vn 0.8345 0.4336 -0.3401
vn 0.8344 0.4337 -0.3401
vn 0.5625 -0.7878 -0.2508
vn 0.5898 -0.6470 -0.4832
vn 0.5897 -0.6470 -0.4834
vn 0.5454 -0.8315 0.1058
vn 0.5456 -0.8313 0.1057
vn 0.5497 -0.7505 0.3667
vn 0.5498 -0.7505 0.3667
vn 0.7599 0.1885 0.6221
vn 0.7090 -0.0676 0.7019
vn 0.7600 0.1886 0.6220
vn 0.7090 -0.0677 0.7020
vn 0.6304 -0.4155 0.6557
vn 0.5722 -0.6405 0.5122
vn 0.5722 -0.6405 0.5123
vn -0.2227 -0.9743 -0.0325
vn 0.0387 0.2494 0.9676
vn 0.0356 0.2365 0.9710
vn 0.2234 0.9745 -0.0227
vn -0.1188 -0.5865 -0.8012
vn 0.1976 0.8180 -0.5403
vn -0.1151 -0.5722 -0.8120
vn 0.9747 -0.2229 0.0187
vn 0.1704 0.6845 -0.7088
vn -0.9746 0.2234 -0.0184
vn -0.9746 0.2231 -0.0187
vn -0.9746 0.2232 -0.0188
vn -0.9746 0.2232 -0.0187
vn -0.9746 0.2231 -0.0188
vn -0.9746 0.2233 -0.0185
vn -0.9746 0.2230 -0.0183
vn 0.0117 0.1338 0.9909
vn -0.8120 -0.3236 0.4857
vn -0.0116 -0.1336 -0.9910
vn -0.2134 -0.9512 -0.2227
vn 0.1251 0.4736 -0.8718
vn 0.1227 0.4620 -0.8784
vn -0.1860 -0.7600 0.6227
vn 0.1379 0.6623 0.7364
vn -0.1837 -0.7487 0.6369
vn -0.9746 0.2231 -0.0186
vn -0.9747 0.2228 -0.0184
vn 0.9746 -0.2232 0.0186
vn 0.9746 -0.2232 0.0187
vn 0.9746 -0.2231 0.0187
vn 0.9746 -0.2230 0.0185
vn 0.9747 -0.2229 0.0186
vn 0.9746 -0.2231 0.0186
vn 0.9746 -0.2232 0.0188
vn 0.9747 -0.2229 0.0185
vn 0.6930 -0.2535 -0.6749
vn 0.8562 0.5106 -0.0788
vn 0.5622 -0.7880 -0.2509
vn 0.6305 -0.4155 0.6557
vn -0.2225 -0.9744 -0.0325
vn 0.0386 0.2494 0.9676
vn 0.0355 0.2365 0.9710
vn 0.2238 0.9744 -0.0229
vn -0.1191 -0.5865 -0.8012
vn 0.1977 0.8180 -0.5403
vn -0.1155 -0.5722 -0.8120
vn 0.9746 -0.2230 0.0188
vt 0.923813 0.161048
vt 0.841505 0.923013
vt 0.079540 0.840705
vt 0.128691 0.200787
vt 0.106330 0.200787
vt 0.553303 0.200787
vt 0.855776 0.200787
vt 0.431164 0.200787
vt 0.469857 0.200787
vt 0.514579 0.200787
vt 0.091443 0.885089
vt 0.012180 0.849563
vt 0.082585 0.971487
vt 0.031065 0.919968
vt 0.117464 0.911110
vt 0.152990 0.990373
vt 0.911940 0.885089
vt 0.991203 0.849563
vt 0.972318 0.919968
vt 0.920798 0.971487
vt 0.885919 0.911110
vt 0.850394 0.990373
vt 0.091443 0.116634
vt 0.012180 0.152159
vt 0.031065 0.081754
vt 0.082585 0.030235
vt 0.117464 0.090613
vt 0.152990 0.011350
vt 0.161848 0.078740
vt 0.911940 0.116634
vt 0.991203 0.152159
vt 0.885919 0.090613
vt 0.972318 0.081754
vt 0.850394 0.011350
vt 0.920798 0.030235
vt 0.079540 0.161048
vt 0.161848 0.923013
vt 0.923813 0.840705
vt 0.425781 0.362359
vt 0.230223 0.603316
vt 0.813823 0.853131
vt 0.210845 0.264425
vt 0.522699 0.496955
vt 0.678826 0.281527
vt 0.846641 0.498708
vt 0.408711 0.365465
vt 0.703617 0.270669
vt 0.547490 0.483022
vt 0.878107 0.200787
vt 0.841505 0.078740
vt 0.161848 0.078709
vt 0.859037 0.487851
vt 0.826218 0.868633
vt 0.210046 0.606422
vt 0.151944 0.252030
s 0
usemtl Timeless_Beauty
f 1/1/1 2/2/1 3/3/1
s 1
f 4/4/2 5/5/3 6/4/4
f 7/6/5 8/7/6 9/7/7
f 10/4/8 11/5/9 12/5/10
f 13/8/11 14/9/12 15/8/13
f 16/4/14 13/8/11 15/8/13
f 17/9/15 18/10/16 14/9/12
f 18/10/16 19/6/17 20/6/18
f 21/11/19 22/12/20 23/3/21
f 21/11/19 24/13/22 25/14/23
f 26/15/24 27/16/25 24/13/22
f 28/17/26 29/18/27 30/19/28
f 28/17/26 31/20/29 32/21/30
f 32/21/30 33/22/31 34/2/32
f 35/23/33 36/24/34 37/25/33
f 35/23/33 38/26/35 39/27/36
f 39/27/36 40/28/37 41/29/38
f 42/30/39 43/31/40 44/1/41
f 45/32/42 46/33/43 42/30/39
f 45/32/42 47/34/44 48/35/45
f 23/3/21 36/24/34 49/36/46
f 50/37/47 33/22/31 27/16/25
f 47/34/44 41/29/38 40/28/37
f 43/31/40 51/38/48 44/1/41
f 52/9/49 53/8/50 54/8/51
s 0
f 55/39/52 56/40/52 57/40/52
s 1
f 58/40/53 59/41/53 60/41/53
s 0
f 61/39/54 62/42/54 63/39/54
f 64/43/55 65/44/55 66/44/55
f 67/45/56 68/43/56 69/43/56
f 70/45/57 71/41/57 72/45/57
f 73/44/58 74/42/58 75/42/58
f 76/46/59 77/47/59 78/48/59
s 1
f 79/49/60 80/49/61 81/49/62
f 20/6/18 82/7/63 83/7/64
f 82/7/63 81/49/62 83/7/64
f 84/10/65 52/9/49 85/10/66
f 9/7/7 80/49/61 86/49/67
f 12/5/10 5/5/3 87/5/68
f 54/8/51 4/4/2 6/4/4
s 0
f 88/50/69 89/38/69 90/2/69
s 1
f 91/34/70 92/32/71 93/50/70
f 92/32/71 94/33/72 95/30/73
f 95/30/73 96/31/74 97/1/75
f 98/21/76 99/22/77 100/2/78
f 101/17/79 102/20/80 98/21/76
f 103/18/81 101/17/79 104/38/82
f 105/27/83 106/28/84 107/51/85
f 108/25/86 105/27/83 109/23/87
f 110/24/88 109/23/87 111/36/89
f 112/16/90 113/15/91 114/37/92
f 115/13/93 116/11/94 113/15/91
f 116/11/94 117/12/95 118/3/96
f 106/28/84 93/50/70 107/51/85
f 96/31/74 104/38/82 97/1/75
f 111/36/89 117/12/95 110/24/88
f 112/16/90 100/2/78 99/22/77
s 0
f 119/40/97 120/39/97 121/40/97
f 122/41/98 123/40/98 124/41/98
s 1
f 125/42/99 126/39/99 127/39/99
f 128/43/100 129/44/100 130/44/100
s 0
f 131/43/101 132/45/101 133/43/101
s 1
f 134/45/102 135/41/102 136/45/102
s 0
f 137/42/103 138/44/103 139/42/103
f 140/46/104 141/47/104 142/48/104
s 1
f 7/6/5 85/10/66 143/6/105
s 0
f 3/3/106 144/36/106 145/29/106
s 1
f 144/36/107 146/23/107 145/29/107
s 0
f 146/23/107 147/27/107 145/29/107
s 1
f 145/29/108 148/50/109 1/1/110
f 148/50/109 149/32/110 1/1/110
f 149/32/110 150/30/107 1/1/110
s 0
f 1/1/111 151/38/111 2/2/111
s 1
f 151/38/107 152/17/107 2/2/107
f 152/17/107 153/21/107 2/2/107
s 0
f 2/2/110 154/37/110 3/3/110
f 154/37/112 155/15/112 3/3/112
s 1
f 155/15/107 156/11/107 3/3/107
s 0
f 3/3/107 145/29/107 1/1/107
s 1
f 4/4/2 87/5/68 5/5/3
f 7/6/5 143/6/105 8/7/6
f 10/4/8 16/4/14 11/5/9
f 13/8/11 17/9/15 14/9/12
f 16/4/14 10/4/8 13/8/11
f 17/9/15 157/10/113 18/10/16
f 18/10/16 157/10/113 19/6/17
f 21/11/19 25/14/23 22/12/20
f 21/11/19 26/15/24 24/13/22
f 26/15/24 50/37/47 27/16/25
f 28/17/26 51/38/48 29/18/27
f 28/17/26 30/19/28 31/20/29
f 32/21/30 31/20/29 33/22/31
f 35/23/33 49/36/46 36/24/34
f 35/23/33 37/25/33 38/26/35
f 39/27/36 38/26/35 40/28/37
f 42/30/39 46/33/43 43/31/40
f 45/32/42 48/35/45 46/33/43
f 45/32/42 158/50/114 47/34/44
f 23/3/21 22/12/20 36/24/34
f 50/37/47 34/2/32 33/22/31
f 47/34/44 158/50/114 41/29/38
f 43/31/40 29/18/27 51/38/48
f 52/9/49 159/9/115 53/8/50
s 0
f 55/39/116 160/39/116 56/40/116
f 58/40/117 161/40/117 59/41/117
s 1
f 61/39/118 162/42/118 62/42/118
s 0
f 64/43/55 163/43/55 65/44/55
s 1
f 67/45/119 164/45/119 68/43/119
s 0
f 70/45/120 165/41/120 71/41/120
f 73/44/121 166/44/121 74/42/121
f 78/48/107 167/52/107 168/53/107
f 168/53/122 169/54/122 78/48/122
f 169/54/109 76/46/109 78/48/109
f 76/46/123 170/55/123 77/47/123
s 1
f 79/49/60 86/49/67 80/49/61
f 20/6/18 19/6/17 82/7/63
f 82/7/63 79/49/60 81/49/62
f 84/10/65 159/9/115 52/9/49
f 9/7/7 8/7/6 80/49/61
f 12/5/10 11/5/9 5/5/3
f 54/8/51 53/8/50 4/4/2
f 171/27/124 172/51/125 173/36/126
s 0
f 172/51/125 88/50/125 174/37/125
s 1
f 88/50/126 175/32/126 176/30/127
f 176/30/127 177/1/124 88/50/126
s 0
f 177/1/128 89/38/128 88/50/128
s 1
f 89/38/126 178/17/126 179/21/126
f 179/21/126 90/2/126 89/38/126
s 0
f 90/2/126 174/37/126 88/50/126
s 1
f 174/37/126 180/15/126 181/11/129
f 181/11/129 182/3/125 174/37/126
f 182/3/125 173/36/130 174/37/126
f 173/36/126 183/23/126 171/27/124
s 0
f 172/51/131 174/37/131 173/36/131
s 1
f 91/34/70 184/35/132 92/32/71
f 92/32/71 184/35/132 94/33/72
f 95/30/73 94/33/72 96/31/74
f 98/21/76 102/20/80 99/22/77
f 101/17/79 185/19/133 102/20/80
f 103/18/81 185/19/133 101/17/79
f 105/27/83 186/26/134 106/28/84
f 108/25/86 186/26/134 105/27/83
f 110/24/88 108/25/86 109/23/87
f 112/16/90 115/13/93 113/15/91
f 115/13/93 187/14/135 116/11/94
f 116/11/94 187/14/135 117/12/95
f 106/28/84 91/34/70 93/50/70
f 96/31/74 103/18/81 104/38/82
f 111/36/89 118/3/96 117/12/95
f 112/16/90 114/37/92 100/2/78
s 0
f 119/40/136 188/39/136 120/39/136
f 122/41/137 189/40/137 123/40/137
f 125/42/138 190/42/138 126/39/138
f 128/43/139 191/43/139 129/44/139
f 131/43/140 192/45/140 132/45/140
f 134/45/141 193/41/141 135/41/141
s 1
f 137/42/142 194/44/142 138/44/142
s 0
f 142/48/124 195/52/124 196/53/124
f 196/53/125 197/54/125 142/48/125
f 197/54/126 140/46/126 142/48/126
s 1
f 140/46/143 198/55/143 141/47/143
f 7/6/5 84/10/65 85/10/66
